<svg xmlns="http://www.w3.org/2000/svg" xmlns:xlink="http://www.w3.org/1999/xlink" width="381" zoomAndPan="magnify" viewBox="0 0 286.5 286.5" height="381" preserveAspectRatio="xMidYMid meet" version="1.0"><defs><clipPath id="31785b64f8"><path d="M 2.308594 2.308594 L 284.238281 2.308594 L 284.238281 284.238281 L 2.308594 284.238281 Z M 2.308594 2.308594 " clip-rule="nonzero"/></clipPath></defs><g clip-path="url(#31785b64f8)"><path fill="#323232" d="M 284.238281 143.273438 C 284.238281 145.582031 284.183594 147.886719 284.070312 150.191406 C 283.957031 152.496094 283.785156 154.796875 283.5625 157.089844 C 283.335938 159.386719 283.050781 161.675781 282.714844 163.957031 C 282.375 166.238281 281.980469 168.511719 281.53125 170.773438 C 281.082031 173.039062 280.574219 175.289062 280.015625 177.527344 C 279.453125 179.761719 278.839844 181.988281 278.167969 184.195312 C 277.5 186.402344 276.777344 188.589844 276 190.765625 C 275.222656 192.9375 274.390625 195.085938 273.507812 197.21875 C 272.625 199.351562 271.691406 201.457031 270.707031 203.542969 C 269.71875 205.628906 268.683594 207.691406 267.59375 209.726562 C 266.507812 211.757812 265.371094 213.765625 264.183594 215.746094 C 263 217.722656 261.765625 219.671875 260.484375 221.589844 C 259.199219 223.507812 257.871094 225.394531 256.5 227.246094 C 255.125 229.101562 253.707031 230.917969 252.242188 232.703125 C 250.777344 234.484375 249.273438 236.230469 247.722656 237.941406 C 246.171875 239.648438 244.582031 241.320312 242.953125 242.953125 C 241.320312 244.582031 239.648438 246.171875 237.941406 247.722656 C 236.230469 249.273438 234.484375 250.777344 232.703125 252.242188 C 230.917969 253.707031 229.101562 255.125 227.246094 256.5 C 225.394531 257.871094 223.507812 259.199219 221.589844 260.484375 C 219.671875 261.765625 217.722656 263 215.746094 264.183594 C 213.765625 265.371094 211.757812 266.507812 209.726562 267.59375 C 207.691406 268.683594 205.628906 269.71875 203.542969 270.707031 C 201.457031 271.691406 199.351562 272.625 197.21875 273.507812 C 195.085938 274.390625 192.9375 275.222656 190.765625 276 C 188.589844 276.777344 186.402344 277.5 184.195312 278.167969 C 181.988281 278.839844 179.761719 279.453125 177.527344 280.015625 C 175.289062 280.574219 173.039062 281.082031 170.773438 281.53125 C 168.511719 281.980469 166.238281 282.375 163.957031 282.714844 C 161.675781 283.050781 159.386719 283.335938 157.089844 283.5625 C 154.792969 283.785156 152.496094 283.957031 150.191406 284.070312 C 147.886719 284.183594 145.582031 284.238281 143.273438 284.238281 C 140.964844 284.238281 138.660156 284.183594 136.355469 284.070312 C 134.050781 283.957031 131.753906 283.785156 129.457031 283.5625 C 127.160156 283.335938 124.871094 283.050781 122.589844 282.714844 C 120.308594 282.375 118.035156 281.980469 115.773438 281.53125 C 113.511719 281.082031 111.257812 280.574219 109.023438 280.015625 C 106.785156 279.453125 104.5625 278.839844 102.351562 278.167969 C 100.144531 277.5 97.957031 276.777344 95.785156 276 C 93.613281 275.222656 91.460938 274.390625 89.328125 273.507812 C 87.195312 272.625 85.089844 271.691406 83.003906 270.707031 C 80.917969 269.71875 78.859375 268.683594 76.824219 267.59375 C 74.789062 266.507812 72.78125 265.371094 70.804688 264.183594 C 68.824219 263 66.875 261.765625 64.957031 260.484375 C 63.039062 259.199219 61.152344 257.871094 59.300781 256.5 C 57.449219 255.125 55.628906 253.707031 53.847656 252.242188 C 52.0625 250.777344 50.316406 249.273438 48.605469 247.722656 C 46.898438 246.171875 45.226562 244.582031 43.597656 242.953125 C 41.964844 241.320312 40.375 239.648438 38.824219 237.941406 C 37.277344 236.230469 35.769531 234.484375 34.304688 232.703125 C 32.84375 230.917969 31.421875 229.101562 30.050781 227.246094 C 28.675781 225.394531 27.347656 223.507812 26.066406 221.589844 C 24.78125 219.671875 23.550781 217.722656 22.363281 215.746094 C 21.175781 213.765625 20.039062 211.757812 18.953125 209.726562 C 17.867188 207.691406 16.828125 205.628906 15.84375 203.542969 C 14.855469 201.457031 13.921875 199.351562 13.039062 197.21875 C 12.15625 195.085938 11.324219 192.9375 10.546875 190.765625 C 9.769531 188.589844 9.046875 186.402344 8.378906 184.195312 C 7.707031 181.984375 7.09375 179.761719 6.53125 177.527344 C 5.972656 175.289062 5.464844 173.039062 5.015625 170.773438 C 4.566406 168.511719 4.171875 166.238281 3.832031 163.957031 C 3.496094 161.675781 3.210938 159.386719 2.988281 157.089844 C 2.761719 154.796875 2.589844 152.496094 2.476562 150.191406 C 2.363281 147.886719 2.308594 145.582031 2.308594 143.273438 C 2.308594 140.964844 2.363281 138.660156 2.476562 136.355469 C 2.589844 134.050781 2.761719 131.753906 2.988281 129.457031 C 3.210938 127.160156 3.496094 124.871094 3.832031 122.589844 C 4.171875 120.308594 4.566406 118.035156 5.015625 115.773438 C 5.464844 113.511719 5.972656 111.257812 6.53125 109.023438 C 7.09375 106.785156 7.707031 104.5625 8.378906 102.351562 C 9.046875 100.144531 9.769531 97.957031 10.546875 95.785156 C 11.324219 93.613281 12.15625 91.460938 13.039062 89.328125 C 13.921875 87.195312 14.855469 85.089844 15.84375 83.003906 C 16.828125 80.917969 17.867188 78.859375 18.953125 76.824219 C 20.039062 74.789062 21.175781 72.78125 22.363281 70.804688 C 23.550781 68.824219 24.78125 66.875 26.066406 64.957031 C 27.347656 63.039062 28.675781 61.152344 30.050781 59.300781 C 31.421875 57.449219 32.84375 55.628906 34.304688 53.847656 C 35.769531 52.0625 37.277344 50.316406 38.824219 48.605469 C 40.375 46.898438 41.964844 45.226562 43.597656 43.597656 C 45.226562 41.964844 46.898438 40.375 48.605469 38.824219 C 50.316406 37.277344 52.0625 35.769531 53.847656 34.304688 C 55.628906 32.84375 57.449219 31.421875 59.300781 30.050781 C 61.152344 28.675781 63.039062 27.347656 64.957031 26.066406 C 66.875 24.78125 68.824219 23.550781 70.804688 22.363281 C 72.78125 21.175781 74.789062 20.039062 76.824219 18.953125 C 78.859375 17.867188 80.917969 16.828125 83.003906 15.84375 C 85.089844 14.855469 87.195312 13.921875 89.328125 13.039062 C 91.460938 12.15625 93.613281 11.324219 95.785156 10.546875 C 97.957031 9.769531 100.144531 9.046875 102.351562 8.378906 C 104.5625 7.707031 106.785156 7.09375 109.023438 6.53125 C 111.257812 5.972656 113.511719 5.464844 115.773438 5.015625 C 118.035156 4.566406 120.308594 4.171875 122.589844 3.832031 C 124.871094 3.496094 127.160156 3.210938 129.457031 2.988281 C 131.753906 2.761719 134.050781 2.589844 136.355469 2.476562 C 138.660156 2.363281 140.964844 2.308594 143.273438 2.308594 C 145.582031 2.308594 147.886719 2.363281 150.191406 2.476562 C 152.496094 2.589844 154.792969 2.761719 157.089844 2.988281 C 159.386719 3.210938 161.675781 3.496094 163.957031 3.832031 C 166.238281 4.171875 168.511719 4.566406 170.773438 5.015625 C 173.039062 5.464844 175.289062 5.972656 177.527344 6.53125 C 179.761719 7.09375 181.988281 7.707031 184.195312 8.378906 C 186.402344 9.046875 188.589844 9.769531 190.765625 10.546875 C 192.9375 11.324219 195.085938 12.15625 197.21875 13.039062 C 199.351562 13.921875 201.457031 14.855469 203.542969 15.84375 C 205.628906 16.828125 207.691406 17.867188 209.726562 18.953125 C 211.757812 20.039062 213.765625 21.175781 215.746094 22.363281 C 217.722656 23.550781 219.671875 24.78125 221.589844 26.066406 C 223.507812 27.347656 225.394531 28.675781 227.246094 30.050781 C 229.101562 31.421875 230.917969 32.84375 232.703125 34.304688 C 234.484375 35.769531 236.230469 37.277344 237.941406 38.824219 C 239.648438 40.375 241.320312 41.964844 242.953125 43.597656 C 244.582031 45.226562 246.171875 46.898438 247.722656 48.605469 C 249.273438 50.316406 250.777344 52.0625 252.242188 53.847656 C 253.707031 55.628906 255.125 57.449219 256.5 59.300781 C 257.871094 61.152344 259.199219 63.039062 260.484375 64.957031 C 261.765625 66.875 263 68.824219 264.183594 70.804688 C 265.371094 72.78125 266.507812 74.789062 267.59375 76.824219 C 268.683594 78.859375 269.71875 80.917969 270.707031 83.003906 C 271.691406 85.089844 272.625 87.195312 273.507812 89.328125 C 274.390625 91.460938 275.222656 93.613281 276 95.785156 C 276.777344 97.957031 277.5 100.144531 278.167969 102.351562 C 278.839844 104.5625 279.453125 106.785156 280.015625 109.023438 C 280.574219 111.257812 281.082031 113.511719 281.53125 115.773438 C 281.980469 118.035156 282.375 120.308594 282.714844 122.589844 C 283.050781 124.871094 283.335938 127.160156 283.5625 129.457031 C 283.785156 131.753906 283.957031 134.050781 284.070312 136.355469 C 284.183594 138.660156 284.238281 140.964844 284.238281 143.273438 Z M 284.238281 143.273438 " fill-opacity="1" fill-rule="nonzero"/></g><path fill="#faa87f" d="M 79.679688 197.148438 C 84.324219 200.554688 89.246094 203.5 94.445312 205.988281 C 99.640625 208.476562 105.023438 210.464844 110.59375 211.949219 C 116.160156 213.433594 121.820312 214.390625 127.570312 214.820312 C 133.316406 215.25 139.058594 215.148438 144.785156 214.507812 C 145.269531 214.4375 145.722656 214.277344 146.140625 214.03125 C 146.5625 213.78125 146.921875 213.464844 147.214844 213.074219 C 147.511719 212.6875 147.722656 212.257812 147.847656 211.785156 C 147.972656 211.316406 148.003906 210.835938 147.941406 210.355469 C 147.878906 209.871094 147.726562 209.417969 147.484375 208.996094 C 147.242188 208.570312 146.925781 208.210938 146.542969 207.910156 C 146.15625 207.609375 145.730469 207.390625 145.257812 207.261719 C 144.789062 207.128906 144.3125 207.089844 143.824219 207.144531 C 138.566406 207.796875 133.289062 207.9375 128 207.574219 C 122.714844 207.207031 117.507812 206.339844 112.390625 204.96875 C 107.269531 203.597656 102.328125 201.753906 97.566406 199.429688 C 92.804688 197.105469 88.308594 194.347656 84.082031 191.15625 C 83.617188 190.796875 83.257812 190.355469 83 189.828125 C 82.742188 189.300781 82.613281 188.742188 82.617188 188.15625 C 82.617188 186.773438 82.6875 185.394531 82.824219 184.019531 C 82.960938 182.644531 83.164062 181.277344 83.433594 179.921875 C 83.707031 178.566406 84.042969 177.226562 84.445312 175.90625 C 84.851562 174.582031 85.316406 173.28125 85.847656 172.003906 C 86.378906 170.726562 86.972656 169.480469 87.625 168.261719 C 88.277344 167.042969 88.992188 165.859375 89.761719 164.707031 C 90.53125 163.558594 91.355469 162.449219 92.234375 161.382812 C 93.117188 160.3125 94.046875 159.289062 95.027344 158.3125 C 96.003906 157.335938 97.03125 156.40625 98.101562 155.53125 C 99.175781 154.652344 100.285156 153.832031 101.4375 153.0625 C 102.589844 152.292969 103.777344 151.585938 105 150.933594 C 106.222656 150.28125 107.472656 149.6875 108.753906 149.160156 C 110.035156 148.628906 111.339844 148.164062 112.664062 147.761719 C 113.992188 147.359375 115.332031 147.023438 116.691406 146.753906 C 118.050781 146.484375 119.421875 146.277344 120.800781 146.140625 C 122.179688 146.007812 123.5625 145.9375 124.949219 145.9375 L 142.023438 145.9375 C 145.949219 145.921875 149.796875 146.464844 153.566406 147.5625 C 154.246094 147.730469 154.921875 147.726562 155.597656 147.550781 C 156.273438 147.371094 156.863281 147.042969 157.371094 146.566406 C 157.824219 146.0625 158.125 145.484375 158.265625 144.824219 C 158.40625 144.160156 158.371094 143.511719 158.160156 142.867188 C 157.953125 142.226562 157.59375 141.679688 157.089844 141.230469 C 156.585938 140.777344 156.003906 140.484375 155.339844 140.347656 C 154.867188 140.210938 154.363281 140.160156 153.886719 140.039062 C 155.054688 139.308594 156.183594 138.519531 157.265625 137.667969 C 158.351562 136.816406 159.386719 135.910156 160.375 134.945312 C 161.363281 133.984375 162.292969 132.972656 163.171875 131.910156 C 164.050781 130.847656 164.867188 129.738281 165.625 128.589844 C 166.382812 127.4375 167.078125 126.25 167.707031 125.023438 C 168.339844 123.800781 168.898438 122.546875 169.394531 121.257812 C 169.890625 119.972656 170.3125 118.667969 170.664062 117.335938 C 171.019531 116.003906 171.300781 114.660156 171.507812 113.296875 C 171.714844 111.9375 171.847656 110.566406 171.910156 109.191406 C 171.96875 107.816406 171.957031 106.441406 171.867188 105.070312 C 171.78125 103.695312 171.617188 102.328125 171.382812 100.972656 C 171.144531 99.617188 170.839844 98.277344 170.457031 96.953125 C 170.078125 95.628906 169.628906 94.332031 169.105469 93.054688 C 168.585938 91.78125 168 90.535156 167.34375 89.324219 C 166.6875 88.113281 165.972656 86.9375 165.191406 85.804688 C 164.410156 84.667969 163.566406 83.578125 162.667969 82.535156 C 161.769531 81.488281 160.816406 80.496094 159.8125 79.554688 C 158.804688 78.613281 157.75 77.726562 156.648438 76.898438 C 155.546875 76.066406 154.402344 75.300781 153.21875 74.59375 C 152.03125 73.886719 150.8125 73.246094 149.558594 72.671875 C 148.304688 72.097656 147.023438 71.589844 145.714844 71.152344 C 144.40625 70.714844 143.078125 70.347656 141.730469 70.050781 C 140.382812 69.757812 139.019531 69.535156 137.648438 69.386719 C 136.277344 69.238281 134.898438 69.160156 133.519531 69.160156 C 132.140625 69.160156 130.761719 69.230469 129.390625 69.378906 C 128.019531 69.523438 126.65625 69.742188 125.308594 70.035156 C 123.960938 70.328125 122.628906 70.691406 121.320312 71.128906 C 120.011719 71.5625 118.726562 72.066406 117.472656 72.640625 C 116.21875 73.214844 114.996094 73.851562 113.8125 74.558594 C 112.625 75.261719 111.480469 76.027344 110.375 76.855469 C 109.273438 77.679688 108.21875 78.566406 107.210938 79.503906 C 106.199219 80.445312 105.246094 81.4375 104.34375 82.480469 C 103.445312 83.523438 102.601562 84.613281 101.820312 85.746094 C 101.035156 86.878906 100.316406 88.050781 99.65625 89.261719 C 99 90.472656 98.410156 91.714844 97.886719 92.988281 C 97.363281 94.261719 96.910156 95.5625 96.527344 96.882812 C 96.144531 98.207031 95.835938 99.546875 95.597656 100.902344 C 95.359375 102.257812 95.195312 103.625 95.105469 104.996094 C 95.011719 106.371094 94.996094 107.746094 95.054688 109.121094 C 95.113281 110.496094 95.242188 111.863281 95.449219 113.226562 C 95.65625 114.585938 95.933594 115.933594 96.28125 117.265625 C 96.632812 118.597656 97.054688 119.90625 97.546875 121.191406 C 98.039062 122.480469 98.597656 123.734375 99.226562 124.960938 C 99.855469 126.1875 100.546875 127.375 101.300781 128.527344 C 102.058594 129.679688 102.875 130.789062 103.75 131.851562 C 104.625 132.917969 105.554688 133.929688 106.539062 134.894531 C 107.527344 135.859375 108.558594 136.769531 109.644531 137.621094 C 110.726562 138.476562 111.851562 139.269531 113.023438 140 C 111.683594 140.328125 110.359375 140.710938 109.054688 141.148438 C 107.746094 141.589844 106.460938 142.078125 105.195312 142.625 C 103.929688 143.167969 102.691406 143.765625 101.472656 144.410156 C 100.257812 145.058594 99.070312 145.753906 97.914062 146.5 C 96.757812 147.246094 95.632812 148.039062 94.539062 148.878906 C 93.449219 149.71875 92.394531 150.601562 91.375 151.527344 C 90.359375 152.453125 89.378906 153.421875 88.441406 154.429688 C 87.503906 155.4375 86.609375 156.480469 85.761719 157.5625 C 84.910156 158.644531 84.105469 159.757812 83.347656 160.90625 C 82.59375 162.054688 81.882812 163.234375 81.226562 164.441406 C 80.566406 165.648438 79.957031 166.878906 79.402344 168.136719 C 78.84375 169.394531 78.34375 170.675781 77.894531 171.972656 C 77.441406 173.273438 77.046875 174.589844 76.707031 175.921875 C 76.367188 177.253906 76.085938 178.597656 75.855469 179.953125 C 75.628906 181.308594 75.457031 182.671875 75.34375 184.039062 C 75.226562 185.410156 75.171875 186.78125 75.171875 188.15625 C 75.167969 189.03125 75.269531 189.890625 75.46875 190.742188 C 75.667969 191.589844 75.964844 192.40625 76.355469 193.1875 C 76.746094 193.96875 77.222656 194.691406 77.785156 195.363281 C 78.347656 196.03125 78.980469 196.628906 79.679688 197.148438 Z M 102.46875 107.578125 C 102.46875 106.566406 102.515625 105.554688 102.617188 104.546875 C 102.714844 103.539062 102.863281 102.539062 103.0625 101.546875 C 103.261719 100.550781 103.507812 99.570312 103.800781 98.601562 C 104.097656 97.632812 104.4375 96.679688 104.828125 95.742188 C 105.214844 94.808594 105.648438 93.894531 106.128906 93 C 106.605469 92.105469 107.128906 91.238281 107.691406 90.398438 C 108.253906 89.554688 108.859375 88.742188 109.503906 87.957031 C 110.148438 87.175781 110.828125 86.425781 111.546875 85.710938 C 112.265625 84.992188 113.015625 84.3125 113.800781 83.671875 C 114.585938 83.027344 115.398438 82.425781 116.246094 81.863281 C 117.089844 81.300781 117.957031 80.777344 118.855469 80.300781 C 119.75 79.824219 120.667969 79.390625 121.605469 79.003906 C 122.542969 78.613281 123.496094 78.273438 124.46875 77.980469 C 125.441406 77.683594 126.425781 77.4375 127.421875 77.238281 C 128.417969 77.042969 129.417969 76.894531 130.429688 76.792969 C 131.441406 76.695312 132.453125 76.644531 133.46875 76.644531 C 134.484375 76.640625 135.496094 76.691406 136.507812 76.789062 C 137.519531 76.890625 138.523438 77.035156 139.519531 77.234375 C 140.515625 77.429688 141.5 77.675781 142.472656 77.96875 C 143.441406 78.261719 144.398438 78.601562 145.335938 78.988281 C 146.273438 79.375 147.191406 79.808594 148.089844 80.285156 C 148.984375 80.761719 149.855469 81.28125 150.699219 81.84375 C 151.542969 82.40625 152.359375 83.007812 153.144531 83.648438 C 153.929688 84.292969 154.683594 84.96875 155.402344 85.6875 C 156.121094 86.402344 156.800781 87.152344 157.445312 87.933594 C 158.089844 88.714844 158.695312 89.527344 159.261719 90.371094 C 159.828125 91.210938 160.347656 92.078125 160.828125 92.972656 C 161.308594 93.863281 161.742188 94.777344 162.132812 95.714844 C 162.519531 96.648438 162.863281 97.601562 163.160156 98.570312 C 163.457031 99.539062 163.703125 100.519531 163.902344 101.511719 C 164.101562 102.507812 164.25 103.507812 164.351562 104.515625 C 164.453125 105.523438 164.503906 106.53125 164.503906 107.546875 C 164.503906 108.558594 164.457031 109.570312 164.359375 110.578125 C 164.257812 111.585938 164.113281 112.585938 163.914062 113.578125 C 163.71875 114.574219 163.472656 115.554688 163.179688 116.523438 C 162.886719 117.492188 162.542969 118.445312 162.15625 119.382812 C 161.769531 120.320312 161.335938 121.234375 160.859375 122.128906 C 160.382812 123.019531 159.863281 123.890625 159.296875 124.734375 C 158.734375 125.574219 158.132812 126.390625 157.488281 127.171875 C 156.84375 127.957031 156.164062 128.707031 155.449219 129.425781 C 154.730469 130.140625 153.980469 130.820312 153.195312 131.464844 C 152.414062 132.109375 151.597656 132.710938 150.753906 133.277344 C 149.910156 133.839844 149.042969 134.363281 148.148438 134.839844 C 147.25 135.320312 146.335938 135.753906 145.398438 136.140625 C 144.460938 136.53125 143.503906 136.871094 142.535156 137.167969 C 141.5625 137.464844 140.578125 137.710938 139.582031 137.910156 C 138.589844 138.109375 137.585938 138.257812 136.574219 138.359375 C 135.5625 138.460938 134.550781 138.511719 133.535156 138.515625 L 133.4375 138.515625 C 132.421875 138.511719 131.410156 138.460938 130.398438 138.355469 C 129.390625 138.253906 128.390625 138.105469 127.394531 137.90625 C 126.398438 137.707031 125.417969 137.457031 124.445312 137.164062 C 123.476562 136.867188 122.523438 136.523438 121.585938 136.136719 C 120.648438 135.746094 119.734375 135.3125 118.839844 134.835938 C 117.945312 134.355469 117.078125 133.835938 116.234375 133.273438 C 115.390625 132.710938 114.578125 132.105469 113.796875 131.464844 C 113.011719 130.820312 112.261719 130.140625 111.542969 129.425781 C 110.828125 128.710938 110.148438 127.960938 109.503906 127.179688 C 108.863281 126.394531 108.257812 125.582031 107.695312 124.742188 C 107.132812 123.902344 106.609375 123.035156 106.132812 122.140625 C 105.65625 121.25 105.222656 120.335938 104.832031 119.398438 C 104.445312 118.464844 104.101562 117.515625 103.808594 116.546875 C 103.511719 115.578125 103.265625 114.597656 103.066406 113.605469 C 102.871094 112.613281 102.71875 111.613281 102.621094 110.605469 C 102.519531 109.597656 102.46875 108.589844 102.46875 107.578125 Z M 102.46875 107.578125 " fill-opacity="1" fill-rule="nonzero"/><path fill="#faa87f" d="M 144.652344 181.820312 C 144.652344 182.914062 144.707031 184.007812 144.8125 185.097656 C 144.921875 186.183594 145.082031 187.265625 145.296875 188.339844 C 145.511719 189.414062 145.777344 190.472656 146.09375 191.519531 C 146.414062 192.566406 146.78125 193.597656 147.203125 194.605469 C 147.621094 195.617188 148.089844 196.605469 148.609375 197.570312 C 149.125 198.535156 149.6875 199.472656 150.296875 200.382812 C 150.90625 201.292969 151.558594 202.171875 152.257812 203.015625 C 152.953125 203.863281 153.6875 204.671875 154.464844 205.445312 C 155.238281 206.21875 156.050781 206.953125 156.898438 207.648438 C 157.75 208.34375 158.628906 208.992188 159.539062 209.601562 C 160.453125 210.207031 161.394531 210.769531 162.359375 211.285156 C 163.328125 211.800781 164.320312 212.269531 165.332031 212.6875 C 166.347656 213.105469 167.378906 213.476562 168.425781 213.792969 C 169.476562 214.109375 170.539062 214.375 171.617188 214.589844 C 172.691406 214.804688 173.777344 214.964844 174.867188 215.070312 C 175.960938 215.179688 177.054688 215.230469 178.152344 215.230469 C 179.25 215.230469 180.34375 215.179688 181.4375 215.070312 C 182.527344 214.964844 183.613281 214.804688 184.6875 214.589844 C 185.761719 214.375 186.828125 214.109375 187.875 213.792969 C 188.925781 213.476562 189.957031 213.105469 190.972656 212.6875 C 191.984375 212.269531 192.976562 211.800781 193.945312 211.285156 C 194.910156 210.769531 195.851562 210.207031 196.761719 209.601562 C 197.675781 208.992188 198.554688 208.34375 199.402344 207.648438 C 200.253906 206.953125 201.0625 206.21875 201.839844 205.445312 C 202.617188 204.671875 203.351562 203.863281 204.046875 203.015625 C 204.742188 202.171875 205.398438 201.292969 206.007812 200.382812 C 206.617188 199.472656 207.179688 198.535156 207.695312 197.570312 C 208.214844 196.605469 208.683594 195.617188 209.101562 194.605469 C 209.523438 193.597656 209.890625 192.566406 210.210938 191.519531 C 210.527344 190.472656 210.792969 189.414062 211.007812 188.339844 C 211.222656 187.265625 211.382812 186.183594 211.492188 185.097656 C 211.597656 184.007812 211.652344 182.914062 211.652344 181.820312 C 211.652344 180.726562 211.597656 179.636719 211.492188 178.546875 C 211.382812 177.457031 211.222656 176.375 211.007812 175.304688 C 210.792969 174.230469 210.527344 173.167969 210.210938 172.121094 C 209.890625 171.074219 209.523438 170.046875 209.101562 169.035156 C 208.683594 168.023438 208.214844 167.035156 207.695312 166.070312 C 207.179688 165.105469 206.617188 164.167969 206.007812 163.257812 C 205.398438 162.347656 204.742188 161.472656 204.046875 160.625 C 203.351562 159.78125 202.617188 158.96875 201.839844 158.195312 C 201.0625 157.421875 200.253906 156.6875 199.402344 155.996094 C 198.554688 155.300781 197.675781 154.648438 196.761719 154.042969 C 195.851562 153.433594 194.910156 152.871094 193.945312 152.355469 C 192.976562 151.839844 191.984375 151.371094 190.972656 150.953125 C 189.957031 150.535156 188.925781 150.167969 187.875 149.847656 C 186.828125 149.53125 185.761719 149.265625 184.6875 149.054688 C 183.613281 148.839844 182.527344 148.679688 181.4375 148.570312 C 180.34375 148.464844 179.25 148.410156 178.152344 148.410156 C 177.054688 148.410156 175.960938 148.464844 174.871094 148.574219 C 173.777344 148.683594 172.695312 148.84375 171.617188 149.058594 C 170.542969 149.273438 169.480469 149.539062 168.433594 149.859375 C 167.382812 150.175781 166.351562 150.542969 165.339844 150.964844 C 164.324219 151.382812 163.335938 151.851562 162.367188 152.367188 C 161.402344 152.882812 160.460938 153.445312 159.550781 154.050781 C 158.636719 154.660156 157.757812 155.3125 156.910156 156.003906 C 156.0625 156.699219 155.25 157.433594 154.476562 158.207031 C 153.699219 158.980469 152.964844 159.789062 152.265625 160.636719 C 151.570312 161.480469 150.917969 162.359375 150.308594 163.269531 C 149.699219 164.175781 149.136719 165.113281 148.617188 166.078125 C 148.101562 167.042969 147.632812 168.03125 147.210938 169.042969 C 146.792969 170.050781 146.421875 171.082031 146.101562 172.125 C 145.785156 173.171875 145.515625 174.234375 145.300781 175.304688 C 145.085938 176.378906 144.925781 177.457031 144.816406 178.546875 C 144.707031 179.636719 144.652344 180.726562 144.652344 181.820312 Z M 178.152344 155.835938 C 179.003906 155.835938 179.855469 155.878906 180.707031 155.960938 C 181.554688 156.042969 182.398438 156.167969 183.234375 156.335938 C 184.070312 156.5 184.898438 156.707031 185.714844 156.953125 C 186.53125 157.203125 187.335938 157.488281 188.121094 157.8125 C 188.910156 158.140625 189.683594 158.503906 190.433594 158.902344 C 191.1875 159.304688 191.917969 159.742188 192.628906 160.214844 C 193.335938 160.6875 194.023438 161.195312 194.679688 161.734375 C 195.339844 162.273438 195.972656 162.84375 196.574219 163.445312 C 197.179688 164.046875 197.75 164.679688 198.292969 165.335938 C 198.835938 165.992188 199.34375 166.675781 199.816406 167.382812 C 200.289062 168.09375 200.730469 168.820312 201.128906 169.570312 C 201.53125 170.320312 201.898438 171.089844 202.222656 171.875 C 202.550781 172.664062 202.835938 173.464844 203.085938 174.277344 C 203.332031 175.09375 203.539062 175.917969 203.707031 176.75 C 203.875 177.585938 204 178.425781 204.082031 179.273438 C 204.164062 180.121094 204.207031 180.96875 204.207031 181.820312 C 204.207031 182.671875 204.164062 183.519531 204.082031 184.367188 C 204 185.214844 203.875 186.054688 203.707031 186.890625 C 203.539062 187.726562 203.332031 188.550781 203.085938 189.363281 C 202.835938 190.179688 202.550781 190.980469 202.222656 191.765625 C 201.898438 192.550781 201.53125 193.320312 201.128906 194.070312 C 200.730469 194.820312 200.289062 195.550781 199.816406 196.257812 C 199.34375 196.964844 198.835938 197.648438 198.292969 198.304688 C 197.75 198.964844 197.179688 199.59375 196.574219 200.195312 C 195.972656 200.796875 195.339844 201.367188 194.679688 201.910156 C 194.023438 202.449219 193.335938 202.953125 192.628906 203.425781 C 191.917969 203.902344 191.1875 204.335938 190.433594 204.738281 C 189.683594 205.140625 188.910156 205.503906 188.121094 205.828125 C 187.335938 206.15625 186.53125 206.441406 185.714844 206.6875 C 184.898438 206.933594 184.070312 207.140625 183.234375 207.308594 C 182.398438 207.472656 181.554688 207.597656 180.707031 207.683594 C 179.855469 207.765625 179.003906 207.808594 178.152344 207.808594 C 177.296875 207.808594 176.449219 207.765625 175.597656 207.683594 C 174.75 207.597656 173.90625 207.472656 173.070312 207.308594 C 172.230469 207.140625 171.40625 206.933594 170.589844 206.6875 C 169.773438 206.441406 168.96875 206.15625 168.179688 205.828125 C 167.394531 205.503906 166.621094 205.140625 165.871094 204.738281 C 165.117188 204.335938 164.386719 203.902344 163.675781 203.425781 C 162.96875 202.953125 162.28125 202.449219 161.621094 201.910156 C 160.964844 201.367188 160.332031 200.796875 159.726562 200.195312 C 159.125 199.59375 158.550781 198.964844 158.011719 198.304688 C 157.46875 197.648438 156.960938 196.964844 156.488281 196.257812 C 156.015625 195.550781 155.574219 194.820312 155.171875 194.070312 C 154.769531 193.320312 154.40625 192.550781 154.078125 191.765625 C 153.753906 190.980469 153.464844 190.179688 153.21875 189.363281 C 152.972656 188.550781 152.765625 187.726562 152.597656 186.890625 C 152.429688 186.054688 152.304688 185.214844 152.222656 184.367188 C 152.136719 183.519531 152.097656 182.671875 152.097656 181.820312 C 152.097656 180.96875 152.140625 180.121094 152.226562 179.273438 C 152.308594 178.429688 152.433594 177.589844 152.601562 176.753906 C 152.769531 175.917969 152.976562 175.09375 153.226562 174.28125 C 153.472656 173.46875 153.761719 172.667969 154.085938 171.882812 C 154.414062 171.09375 154.78125 170.328125 155.183594 169.578125 C 155.585938 168.828125 156.023438 168.097656 156.496094 167.390625 C 156.972656 166.683594 157.480469 166 158.019531 165.34375 C 158.5625 164.6875 159.132812 164.054688 159.738281 163.453125 C 160.339844 162.851562 160.972656 162.28125 161.628906 161.742188 C 162.289062 161.203125 162.972656 160.695312 163.683594 160.222656 C 164.390625 159.75 165.125 159.3125 165.875 158.914062 C 166.628906 158.511719 167.398438 158.148438 168.1875 157.820312 C 168.972656 157.496094 169.777344 157.207031 170.59375 156.960938 C 171.40625 156.714844 172.234375 156.507812 173.070312 156.339844 C 173.90625 156.171875 174.75 156.046875 175.597656 155.964844 C 176.449219 155.878906 177.300781 155.835938 178.152344 155.835938 Z M 178.152344 155.835938 " fill-opacity="1" fill-rule="nonzero"/><path fill="#faa87f" d="M 163.261719 185.535156 L 174.429688 185.535156 L 174.429688 196.671875 C 174.429688 197.164062 174.523438 197.636719 174.714844 198.089844 C 174.902344 198.546875 175.171875 198.945312 175.519531 199.296875 C 175.867188 199.644531 176.273438 199.910156 176.726562 200.101562 C 177.183594 200.289062 177.660156 200.382812 178.152344 200.382812 C 178.644531 200.382812 179.121094 200.289062 179.578125 200.101562 C 180.03125 199.910156 180.433594 199.644531 180.785156 199.296875 C 181.132812 198.945312 181.402344 198.546875 181.589844 198.089844 C 181.78125 197.636719 181.875 197.164062 181.875 196.671875 L 181.875 185.535156 L 193.039062 185.535156 C 193.535156 185.535156 194.007812 185.4375 194.464844 185.25 C 194.921875 185.0625 195.324219 184.792969 195.671875 184.445312 C 196.023438 184.097656 196.289062 183.695312 196.480469 183.242188 C 196.667969 182.785156 196.761719 182.3125 196.761719 181.820312 C 196.761719 181.328125 196.667969 180.855469 196.480469 180.402344 C 196.289062 179.945312 196.023438 179.542969 195.671875 179.195312 C 195.324219 178.847656 194.921875 178.578125 194.464844 178.390625 C 194.007812 178.203125 193.535156 178.109375 193.039062 178.109375 L 181.875 178.109375 L 181.875 166.972656 C 181.875 166.480469 181.78125 166.007812 181.589844 165.550781 C 181.402344 165.097656 181.132812 164.695312 180.785156 164.347656 C 180.433594 164 180.03125 163.730469 179.578125 163.542969 C 179.121094 163.355469 178.644531 163.261719 178.152344 163.261719 C 177.660156 163.261719 177.183594 163.355469 176.726562 163.542969 C 176.273438 163.730469 175.867188 164 175.519531 164.347656 C 175.171875 164.695312 174.902344 165.097656 174.714844 165.550781 C 174.523438 166.007812 174.429688 166.480469 174.429688 166.972656 L 174.429688 178.109375 L 163.261719 178.109375 C 162.769531 178.109375 162.292969 178.203125 161.839844 178.390625 C 161.382812 178.578125 160.980469 178.847656 160.632812 179.195312 C 160.28125 179.542969 160.011719 179.945312 159.824219 180.402344 C 159.636719 180.855469 159.542969 181.328125 159.542969 181.820312 C 159.542969 182.3125 159.636719 182.785156 159.824219 183.242188 C 160.011719 183.695312 160.28125 184.097656 160.632812 184.445312 C 160.980469 184.792969 161.382812 185.0625 161.839844 185.25 C 162.292969 185.4375 162.769531 185.535156 163.261719 185.535156 Z M 163.261719 185.535156 " fill-opacity="1" fill-rule="nonzero"/></svg>