<svg xmlns="http://www.w3.org/2000/svg" xmlns:xlink="http://www.w3.org/1999/xlink" width="676" zoomAndPan="magnify" viewBox="0 0 507 506.249968" height="675" preserveAspectRatio="xMidYMid meet" version="1.0"><defs><clipPath id="c39caf6178"><path d="M 75.832031 74.902344 L 430.804688 74.902344 L 430.804688 429.878906 L 75.832031 429.878906 Z M 75.832031 74.902344 " clip-rule="nonzero"/></clipPath><clipPath id="ba3a754acf"><path d="M 136 125.007812 L 303 125.007812 L 303 377 L 136 377 Z M 136 125.007812 " clip-rule="nonzero"/></clipPath></defs><g clip-path="url(#c39caf6178)"><path fill="#323232" d="M 430.804688 252.390625 C 430.804688 255.296875 430.734375 258.199219 430.589844 261.097656 C 430.449219 264 430.234375 266.894531 429.949219 269.785156 C 429.667969 272.675781 429.3125 275.558594 428.882812 278.433594 C 428.457031 281.304688 427.960938 284.167969 427.394531 287.015625 C 426.828125 289.863281 426.191406 292.699219 425.488281 295.515625 C 424.78125 298.332031 424.007812 301.132812 423.164062 303.910156 C 422.320312 306.691406 421.410156 309.449219 420.429688 312.183594 C 419.453125 314.917969 418.40625 317.628906 417.296875 320.3125 C 416.183594 322.996094 415.007812 325.648438 413.765625 328.277344 C 412.523438 330.902344 411.21875 333.496094 409.847656 336.058594 C 408.480469 338.617188 407.046875 341.144531 405.554688 343.636719 C 404.0625 346.128906 402.507812 348.582031 400.894531 350.996094 C 399.28125 353.410156 397.609375 355.785156 395.878906 358.117188 C 394.148438 360.453125 392.359375 362.742188 390.519531 364.988281 C 388.675781 367.230469 386.777344 369.429688 384.828125 371.582031 C 382.878906 373.734375 380.875 375.839844 378.820312 377.890625 C 376.765625 379.945312 374.664062 381.949219 372.511719 383.898438 C 370.359375 385.851562 368.160156 387.746094 365.914062 389.589844 C 363.667969 391.433594 361.378906 393.21875 359.046875 394.949219 C 356.714844 396.679688 354.339844 398.351562 351.925781 399.964844 C 349.507812 401.578125 347.054688 403.132812 344.566406 404.625 C 342.074219 406.121094 339.546875 407.550781 336.984375 408.917969 C 334.421875 410.289062 331.828125 411.59375 329.203125 412.835938 C 326.578125 414.078125 323.921875 415.253906 321.238281 416.367188 C 318.554688 417.476562 315.847656 418.523438 313.113281 419.503906 C 310.378906 420.480469 307.621094 421.390625 304.839844 422.234375 C 302.0625 423.078125 299.261719 423.851562 296.445312 424.558594 C 293.625 425.265625 290.792969 425.898438 287.945312 426.46875 C 285.09375 427.035156 282.234375 427.53125 279.359375 427.957031 C 276.488281 428.382812 273.605469 428.738281 270.714844 429.023438 C 267.824219 429.308594 264.929688 429.519531 262.027344 429.664062 C 259.125 429.804688 256.222656 429.878906 253.320312 429.878906 C 250.414062 429.878906 247.511719 429.804688 244.609375 429.664062 C 241.707031 429.519531 238.8125 429.308594 235.921875 429.023438 C 233.03125 428.738281 230.148438 428.382812 227.277344 427.957031 C 224.402344 427.53125 221.542969 427.035156 218.691406 426.46875 C 215.84375 425.898438 213.011719 425.265625 210.191406 424.558594 C 207.375 423.851562 204.578125 423.078125 201.796875 422.234375 C 199.015625 421.390625 196.257812 420.480469 193.523438 419.503906 C 190.789062 418.523438 188.082031 417.476562 185.398438 416.367188 C 182.714844 415.253906 180.058594 414.078125 177.433594 412.835938 C 174.808594 411.59375 172.214844 410.289062 169.652344 408.917969 C 167.089844 407.550781 164.5625 406.121094 162.070312 404.625 C 159.582031 403.132812 157.128906 401.578125 154.710938 399.964844 C 152.296875 398.351562 149.921875 396.679688 147.589844 394.949219 C 145.257812 393.21875 142.96875 391.433594 140.722656 389.589844 C 138.476562 387.746094 136.277344 385.851562 134.125 383.898438 C 131.972656 381.949219 129.871094 379.945312 127.816406 377.890625 C 125.761719 375.839844 123.761719 373.734375 121.808594 371.582031 C 119.859375 369.429688 117.960938 367.230469 116.117188 364.988281 C 114.277344 362.742188 112.488281 360.453125 110.757812 358.117188 C 109.027344 355.785156 107.355469 353.410156 105.742188 350.996094 C 104.128906 348.582031 102.574219 346.128906 101.082031 343.636719 C 99.589844 341.144531 98.15625 338.617188 96.789062 336.058594 C 95.417969 333.496094 94.113281 330.902344 92.871094 328.277344 C 91.628906 325.648438 90.453125 322.996094 89.339844 320.3125 C 88.230469 317.628906 87.183594 314.917969 86.207031 312.183594 C 85.226562 309.449219 84.316406 306.691406 83.472656 303.910156 C 82.628906 301.132812 81.855469 298.332031 81.152344 295.515625 C 80.445312 292.699219 79.808594 289.863281 79.242188 287.015625 C 78.675781 284.167969 78.179688 281.304688 77.753906 278.433594 C 77.328125 275.558594 76.972656 272.675781 76.6875 269.785156 C 76.402344 266.894531 76.1875 264 76.046875 261.097656 C 75.902344 258.199219 75.832031 255.296875 75.832031 252.390625 C 75.832031 249.484375 75.902344 246.582031 76.046875 243.679688 C 76.1875 240.78125 76.402344 237.882812 76.6875 234.992188 C 76.972656 232.101562 77.328125 229.222656 77.753906 226.347656 C 78.179688 223.472656 78.675781 220.613281 79.242188 217.765625 C 79.808594 214.914062 80.445312 212.082031 81.152344 209.265625 C 81.855469 206.445312 82.628906 203.648438 83.472656 200.867188 C 84.316406 198.089844 85.226562 195.332031 86.207031 192.597656 C 87.183594 189.863281 88.230469 187.152344 89.339844 184.46875 C 90.453125 181.785156 91.628906 179.128906 92.871094 176.503906 C 94.113281 173.878906 95.417969 171.285156 96.789062 168.722656 C 98.15625 166.160156 99.589844 163.636719 101.082031 161.144531 C 102.574219 158.652344 104.128906 156.199219 105.742188 153.785156 C 107.355469 151.367188 109.027344 148.996094 110.757812 146.660156 C 112.488281 144.328125 114.277344 142.039062 116.117188 139.792969 C 117.960938 137.546875 119.859375 135.347656 121.808594 133.195312 C 123.761719 131.046875 125.761719 128.941406 127.816406 126.886719 C 129.871094 124.835938 131.972656 122.832031 134.125 120.882812 C 136.277344 118.929688 138.476562 117.035156 140.722656 115.191406 C 142.96875 113.347656 145.257812 111.5625 147.589844 109.832031 C 149.921875 108.101562 152.296875 106.429688 154.710938 104.816406 C 157.128906 103.203125 159.582031 101.648438 162.070312 100.15625 C 164.5625 98.660156 167.089844 97.230469 169.652344 95.859375 C 172.214844 94.492188 174.808594 93.1875 177.433594 91.945312 C 180.058594 90.703125 182.714844 89.523438 185.398438 88.414062 C 188.082031 87.300781 190.789062 86.257812 193.523438 85.277344 C 196.257812 84.300781 199.015625 83.390625 201.796875 82.546875 C 204.578125 81.703125 207.375 80.929688 210.191406 80.222656 C 213.011719 79.515625 215.84375 78.878906 218.691406 78.3125 C 221.542969 77.746094 224.402344 77.25 227.277344 76.824219 C 230.148438 76.398438 233.03125 76.042969 235.921875 75.757812 C 238.8125 75.472656 241.707031 75.257812 244.609375 75.117188 C 247.511719 74.972656 250.414062 74.902344 253.320312 74.902344 C 256.222656 74.902344 259.125 74.972656 262.027344 75.117188 C 264.929688 75.257812 267.824219 75.472656 270.714844 75.757812 C 273.605469 76.042969 276.488281 76.398438 279.359375 76.824219 C 282.234375 77.25 285.09375 77.746094 287.945312 78.3125 C 290.792969 78.878906 293.625 79.515625 296.445312 80.222656 C 299.261719 80.929688 302.0625 81.703125 304.839844 82.546875 C 307.621094 83.390625 310.378906 84.300781 313.113281 85.277344 C 315.847656 86.257812 318.554688 87.300781 321.238281 88.414062 C 323.921875 89.523438 326.578125 90.703125 329.203125 91.945312 C 331.828125 93.1875 334.421875 94.492188 336.984375 95.859375 C 339.546875 97.230469 342.074219 98.660156 344.566406 100.15625 C 347.054688 101.648438 349.507812 103.203125 351.925781 104.816406 C 354.339844 106.429688 356.714844 108.101562 359.046875 109.832031 C 361.378906 111.5625 363.667969 113.347656 365.914062 115.191406 C 368.160156 117.035156 370.359375 118.929688 372.511719 120.882812 C 374.664062 122.832031 376.765625 124.835938 378.820312 126.886719 C 380.875 128.941406 382.878906 131.046875 384.828125 133.195312 C 386.777344 135.347656 388.675781 137.546875 390.519531 139.792969 C 392.359375 142.039062 394.148438 144.328125 395.878906 146.660156 C 397.609375 148.996094 399.28125 151.367188 400.894531 153.785156 C 402.507812 156.199219 404.0625 158.652344 405.554688 161.144531 C 407.046875 163.636719 408.480469 166.160156 409.847656 168.722656 C 411.21875 171.285156 412.523438 173.878906 413.765625 176.503906 C 415.007812 179.128906 416.183594 181.785156 417.296875 184.46875 C 418.40625 187.152344 419.453125 189.863281 420.429688 192.597656 C 421.410156 195.332031 422.320312 198.089844 423.164062 200.867188 C 424.007812 203.648438 424.78125 206.445312 425.488281 209.265625 C 426.191406 212.082031 426.828125 214.914062 427.394531 217.765625 C 427.960938 220.613281 428.457031 223.472656 428.882812 226.347656 C 429.3125 229.222656 429.667969 232.101562 429.949219 234.992188 C 430.234375 237.882812 430.449219 240.78125 430.589844 243.679688 C 430.734375 246.582031 430.804688 249.484375 430.804688 252.390625 Z M 430.804688 252.390625 " fill-opacity="1" fill-rule="nonzero"/></g><g clip-path="url(#ba3a754acf)"><path fill="#faa87f" d="M 144.328125 345.539062 C 148.304688 348.460938 152.40625 351.195312 156.636719 353.734375 C 160.867188 356.277344 165.207031 358.613281 169.652344 360.75 C 174.101562 362.886719 178.640625 364.808594 183.269531 366.523438 C 187.894531 368.234375 192.59375 369.730469 197.359375 371.003906 C 202.128906 372.277344 206.941406 373.328125 211.808594 374.152344 C 216.671875 374.976562 221.566406 375.574219 226.484375 375.945312 C 231.40625 376.3125 236.332031 376.453125 241.265625 376.363281 C 246.199219 376.269531 251.121094 375.953125 256.023438 375.402344 C 256.433594 375.34375 256.835938 375.242188 257.226562 375.105469 C 257.617188 374.96875 257.992188 374.792969 258.351562 374.582031 C 258.707031 374.371094 259.042969 374.125 259.351562 373.851562 C 259.660156 373.574219 259.941406 373.269531 260.191406 372.9375 C 260.445312 372.609375 260.660156 372.257812 260.84375 371.882812 C 261.023438 371.507812 261.167969 371.121094 261.273438 370.722656 C 261.382812 370.320312 261.449219 369.910156 261.476562 369.496094 C 261.503906 369.082031 261.488281 368.671875 261.4375 368.257812 C 261.382812 367.847656 261.289062 367.445312 261.15625 367.050781 C 261.023438 366.65625 260.855469 366.277344 260.652344 365.917969 C 260.445312 365.558594 260.207031 365.21875 259.933594 364.90625 C 259.664062 364.589844 259.363281 364.308594 259.039062 364.050781 C 258.710938 363.796875 258.363281 363.574219 257.992188 363.386719 C 257.621094 363.199219 257.234375 363.046875 256.835938 362.933594 C 256.4375 362.820312 256.03125 362.75 255.617188 362.714844 C 255.203125 362.683594 254.789062 362.6875 254.375 362.738281 C 249.875 363.296875 245.355469 363.636719 240.820312 363.761719 C 236.285156 363.882812 231.753906 363.789062 227.226562 363.472656 C 222.703125 363.160156 218.203125 362.628906 213.726562 361.878906 C 209.253906 361.132812 204.824219 360.167969 200.441406 358.992188 C 196.058594 357.816406 191.746094 356.433594 187.496094 354.839844 C 183.246094 353.25 179.085938 351.453125 175.011719 349.460938 C 170.933594 347.464844 166.964844 345.28125 163.101562 342.902344 C 159.234375 340.527344 155.496094 337.96875 151.878906 335.230469 C 151.078125 334.613281 150.460938 333.847656 150.019531 332.941406 C 149.578125 332.035156 149.359375 331.078125 149.363281 330.066406 C 149.363281 328.878906 149.394531 327.691406 149.453125 326.503906 C 149.511719 325.316406 149.601562 324.132812 149.71875 322.949219 C 149.835938 321.765625 149.980469 320.589844 150.15625 319.414062 C 150.332031 318.238281 150.535156 317.066406 150.769531 315.902344 C 151 314.734375 151.261719 313.578125 151.550781 312.421875 C 151.839844 311.269531 152.15625 310.125 152.503906 308.988281 C 152.847656 307.851562 153.222656 306.722656 153.625 305.605469 C 154.023438 304.484375 154.453125 303.378906 154.90625 302.28125 C 155.363281 301.183594 155.84375 300.097656 156.351562 299.023438 C 156.863281 297.949219 157.394531 296.886719 157.957031 295.839844 C 158.515625 294.789062 159.101562 293.757812 159.714844 292.738281 C 160.324219 291.71875 160.960938 290.714844 161.621094 289.726562 C 162.28125 288.738281 162.964844 287.765625 163.675781 286.8125 C 164.382812 285.859375 165.113281 284.921875 165.867188 284.003906 C 166.621094 283.082031 167.398438 282.183594 168.195312 281.304688 C 168.992188 280.421875 169.8125 279.5625 170.652344 278.722656 C 171.492188 277.882812 172.355469 277.0625 173.234375 276.265625 C 174.113281 275.464844 175.015625 274.691406 175.933594 273.9375 C 176.851562 273.179688 177.789062 272.449219 178.742188 271.742188 C 179.695312 271.035156 180.667969 270.351562 181.65625 269.6875 C 182.644531 269.027344 183.648438 268.394531 184.664062 267.78125 C 185.683594 267.171875 186.71875 266.585938 187.765625 266.023438 C 188.8125 265.464844 189.875 264.929688 190.949219 264.421875 C 192.023438 263.910156 193.109375 263.429688 194.207031 262.972656 C 195.304688 262.519531 196.414062 262.089844 197.53125 261.691406 C 198.648438 261.289062 199.777344 260.914062 200.914062 260.570312 C 202.050781 260.222656 203.195312 259.90625 204.347656 259.617188 C 205.503906 259.328125 206.660156 259.066406 207.828125 258.835938 C 208.992188 258.601562 210.164062 258.398438 211.335938 258.222656 C 212.511719 258.046875 213.691406 257.902344 214.875 257.785156 C 216.058594 257.667969 217.242188 257.578125 218.429688 257.519531 C 219.617188 257.460938 220.804688 257.429688 221.992188 257.429688 L 251.28125 257.429688 C 258.019531 257.40625 264.621094 258.339844 271.085938 260.230469 C 271.660156 260.371094 272.242188 260.441406 272.832031 260.4375 C 273.421875 260.433594 274 260.355469 274.570312 260.203125 C 275.140625 260.054688 275.683594 259.835938 276.199219 259.546875 C 276.714844 259.261719 277.1875 258.914062 277.617188 258.507812 C 278 258.085938 278.320312 257.621094 278.578125 257.113281 C 278.839844 256.605469 279.027344 256.070312 279.148438 255.511719 C 279.265625 254.953125 279.3125 254.390625 279.28125 253.820312 C 279.25 253.25 279.148438 252.695312 278.972656 252.152344 C 278.796875 251.609375 278.550781 251.097656 278.238281 250.617188 C 277.929688 250.140625 277.558594 249.710938 277.132812 249.328125 C 276.710938 248.949219 276.242188 248.628906 275.734375 248.371094 C 275.222656 248.113281 274.691406 247.925781 274.132812 247.808594 C 273.320312 247.578125 272.457031 247.492188 271.632812 247.285156 C 272.636719 246.65625 273.621094 246 274.589844 245.320312 C 275.558594 244.640625 276.507812 243.933594 277.4375 243.203125 C 278.367188 242.46875 279.277344 241.714844 280.167969 240.933594 C 281.054688 240.152344 281.921875 239.347656 282.769531 238.519531 C 283.613281 237.691406 284.4375 236.84375 285.238281 235.972656 C 286.039062 235.101562 286.816406 234.207031 287.566406 233.292969 C 288.320312 232.378906 289.046875 231.449219 289.75 230.496094 C 290.449219 229.542969 291.128906 228.570312 291.777344 227.582031 C 292.425781 226.59375 293.050781 225.589844 293.644531 224.566406 C 294.242188 223.542969 294.808594 222.503906 295.347656 221.453125 C 295.890625 220.398438 296.402344 219.332031 296.882812 218.25 C 297.367188 217.171875 297.820312 216.078125 298.242188 214.972656 C 298.667969 213.867188 299.058594 212.753906 299.425781 211.625 C 299.789062 210.5 300.121094 209.367188 300.425781 208.222656 C 300.726562 207.078125 301 205.925781 301.238281 204.765625 C 301.480469 203.609375 301.691406 202.445312 301.867188 201.273438 C 302.046875 200.105469 302.191406 198.929688 302.308594 197.753906 C 302.421875 196.574219 302.507812 195.394531 302.558594 194.210938 C 302.609375 193.03125 302.628906 191.847656 302.617188 190.664062 C 302.605469 189.480469 302.5625 188.296875 302.484375 187.117188 C 302.410156 185.9375 302.304688 184.757812 302.164062 183.582031 C 302.023438 182.40625 301.855469 181.238281 301.652344 180.070312 C 301.449219 178.90625 301.21875 177.746094 300.953125 176.589844 C 300.6875 175.4375 300.394531 174.292969 300.066406 173.15625 C 299.742188 172.015625 299.386719 170.886719 299 169.769531 C 298.613281 168.652344 298.195312 167.542969 297.75 166.449219 C 297.304688 165.351562 296.828125 164.269531 296.324219 163.199219 C 295.820312 162.128906 295.285156 161.070312 294.726562 160.03125 C 294.164062 158.988281 293.574219 157.960938 292.957031 156.953125 C 292.34375 155.941406 291.699219 154.949219 291.027344 153.972656 C 290.359375 152.996094 289.664062 152.039062 288.941406 151.101562 C 288.222656 150.164062 287.476562 149.246094 286.703125 148.347656 C 285.933594 147.449219 285.140625 146.574219 284.320312 145.71875 C 283.503906 144.863281 282.664062 144.03125 281.800781 143.21875 C 280.9375 142.410156 280.054688 141.625 279.148438 140.863281 C 278.242188 140.097656 277.320312 139.363281 276.375 138.648438 C 275.429688 137.9375 274.46875 137.25 273.484375 136.589844 C 272.503906 135.925781 271.503906 135.292969 270.488281 134.6875 C 269.472656 134.078125 268.441406 133.5 267.394531 132.949219 C 266.347656 132.394531 265.289062 131.871094 264.214844 131.378906 C 263.136719 130.882812 262.050781 130.417969 260.949219 129.980469 C 259.851562 129.546875 258.738281 129.140625 257.617188 128.761719 C 256.496094 128.386719 255.363281 128.039062 254.222656 127.726562 C 253.082031 127.410156 251.9375 127.125 250.78125 126.871094 C 249.625 126.617188 248.460938 126.394531 247.292969 126.203125 C 246.128906 126.011719 244.953125 125.851562 243.777344 125.726562 C 242.601562 125.597656 241.421875 125.5 240.242188 125.4375 C 239.058594 125.371094 237.878906 125.339844 236.695312 125.335938 C 235.511719 125.335938 234.328125 125.367188 233.148438 125.429688 C 231.964844 125.492188 230.785156 125.585938 229.609375 125.710938 C 228.433594 125.835938 227.261719 125.996094 226.09375 126.183594 C 224.925781 126.375 223.761719 126.59375 222.605469 126.84375 C 221.449219 127.097656 220.300781 127.378906 219.160156 127.691406 C 218.019531 128.007812 216.886719 128.351562 215.765625 128.722656 C 214.640625 129.097656 213.53125 129.503906 212.429688 129.9375 C 211.328125 130.371094 210.242188 130.832031 209.164062 131.328125 C 208.089844 131.820312 207.027344 132.339844 205.980469 132.890625 C 204.929688 133.441406 203.898438 134.015625 202.882812 134.621094 C 201.867188 135.226562 200.867188 135.859375 199.882812 136.519531 C 198.898438 137.179688 197.9375 137.863281 196.988281 138.574219 C 196.042969 139.285156 195.117188 140.019531 194.210938 140.78125 C 193.304688 141.542969 192.417969 142.328125 191.554688 143.136719 C 190.691406 143.945312 189.847656 144.777344 189.03125 145.628906 C 188.210938 146.484375 187.414062 147.359375 186.640625 148.253906 C 185.871094 149.152344 185.121094 150.066406 184.398438 151.003906 C 183.675781 151.941406 182.980469 152.898438 182.308594 153.871094 C 181.636719 154.847656 180.988281 155.835938 180.371094 156.847656 C 179.753906 157.855469 179.164062 158.878906 178.597656 159.921875 C 178.035156 160.960938 177.5 162.015625 176.996094 163.085938 C 176.488281 164.15625 176.011719 165.238281 175.5625 166.332031 C 175.113281 167.429688 174.695312 168.535156 174.308594 169.652344 C 173.917969 170.769531 173.558594 171.898438 173.230469 173.035156 C 172.902344 174.171875 172.605469 175.316406 172.339844 176.472656 C 172.074219 177.625 171.839844 178.785156 171.632812 179.949219 C 171.429688 181.113281 171.257812 182.285156 171.117188 183.460938 C 170.976562 184.636719 170.867188 185.8125 170.789062 186.992188 C 170.710938 188.175781 170.664062 189.355469 170.648438 190.539062 C 170.636719 191.722656 170.652344 192.90625 170.703125 194.089844 C 170.75 195.273438 170.832031 196.453125 170.945312 197.628906 C 171.058594 198.808594 171.203125 199.980469 171.378906 201.152344 C 171.554688 202.324219 171.761719 203.488281 172 204.648438 C 172.238281 205.804688 172.507812 206.957031 172.808594 208.101562 C 173.109375 209.246094 173.441406 210.382812 173.804688 211.507812 C 174.164062 212.636719 174.558594 213.753906 174.980469 214.859375 C 175.402344 215.964844 175.851562 217.058594 176.332031 218.140625 C 176.8125 219.21875 177.324219 220.289062 177.859375 221.34375 C 178.398438 222.394531 178.964844 223.433594 179.558594 224.457031 C 180.152344 225.480469 180.773438 226.488281 181.421875 227.480469 C 182.070312 228.46875 182.742188 229.441406 183.445312 230.394531 C 184.144531 231.347656 184.871094 232.285156 185.621094 233.199219 C 186.371094 234.113281 187.144531 235.007812 187.945312 235.882812 C 188.742188 236.753906 189.5625 237.605469 190.410156 238.433594 C 191.253906 239.261719 192.121094 240.070312 193.007812 240.851562 C 193.894531 241.632812 194.804688 242.390625 195.730469 243.125 C 196.660156 243.859375 197.609375 244.566406 198.574219 245.25 C 199.542969 245.933594 200.527344 246.589844 201.527344 247.21875 C 199.230469 247.78125 196.960938 248.441406 194.722656 249.195312 C 192.480469 249.949219 190.273438 250.792969 188.101562 251.730469 C 185.929688 252.664062 183.800781 253.691406 181.714844 254.804688 C 179.628906 255.917969 177.59375 257.117188 175.609375 258.398438 C 173.621094 259.683594 171.691406 261.046875 169.820312 262.492188 C 167.945312 263.933594 166.136719 265.453125 164.390625 267.046875 C 162.644531 268.640625 160.964844 270.304688 159.359375 272.039062 C 157.75 273.773438 156.214844 275.570312 154.757812 277.429688 C 153.300781 279.292969 151.921875 281.210938 150.621094 283.1875 C 149.320312 285.164062 148.105469 287.1875 146.976562 289.265625 C 145.84375 291.34375 144.800781 293.460938 143.847656 295.625 C 142.894531 297.789062 142.03125 299.988281 141.257812 302.226562 C 140.488281 304.460938 139.808594 306.722656 139.226562 309.015625 C 138.644531 311.308594 138.15625 313.621094 137.765625 315.953125 C 137.375 318.285156 137.082031 320.628906 136.882812 322.984375 C 136.6875 325.34375 136.589844 327.703125 136.589844 330.066406 C 136.585938 331.570312 136.757812 333.050781 137.101562 334.515625 C 137.445312 335.976562 137.953125 337.378906 138.621094 338.722656 C 139.292969 340.066406 140.113281 341.3125 141.078125 342.464844 C 142.039062 343.617188 143.125 344.640625 144.328125 345.539062 Z M 183.421875 191.433594 C 183.421875 189.691406 183.503906 187.953125 183.675781 186.21875 C 183.847656 184.484375 184.101562 182.765625 184.441406 181.054688 C 184.78125 179.347656 185.203125 177.65625 185.710938 175.988281 C 186.214844 174.324219 186.800781 172.683594 187.46875 171.074219 C 188.136719 169.464844 188.878906 167.890625 189.699219 166.351562 C 190.519531 164.816406 191.414062 163.324219 192.382812 161.875 C 193.351562 160.425781 194.386719 159.027344 195.492188 157.679688 C 196.597656 156.332031 197.765625 155.042969 198.996094 153.808594 C 200.230469 152.578125 201.519531 151.410156 202.863281 150.300781 C 204.210938 149.195312 205.609375 148.160156 207.054688 147.191406 C 208.503906 146.222656 209.996094 145.328125 211.535156 144.503906 C 213.070312 143.683594 214.640625 142.9375 216.25 142.269531 C 217.863281 141.601562 219.5 141.015625 221.167969 140.507812 C 222.832031 140.003906 224.523438 139.578125 226.230469 139.238281 C 227.9375 138.898438 229.660156 138.640625 231.394531 138.46875 C 233.128906 138.296875 234.867188 138.210938 236.609375 138.210938 C 238.351562 138.210938 240.089844 138.292969 241.824219 138.464844 C 243.554688 138.632812 245.277344 138.890625 246.988281 139.226562 C 248.695312 139.566406 250.382812 139.988281 252.050781 140.492188 C 253.71875 140.996094 255.359375 141.582031 256.96875 142.25 C 258.578125 142.914062 260.152344 143.65625 261.691406 144.476562 C 263.226562 145.296875 264.71875 146.191406 266.167969 147.160156 C 267.617188 148.125 269.015625 149.164062 270.363281 150.265625 C 271.710938 151.371094 273.003906 152.539062 274.234375 153.769531 C 275.46875 155 276.636719 156.289062 277.746094 157.636719 C 278.851562 158.980469 279.890625 160.378906 280.859375 161.828125 C 281.828125 163.273438 282.722656 164.765625 283.546875 166.304688 C 284.367188 167.839844 285.113281 169.410156 285.78125 171.019531 C 286.449219 172.628906 287.039062 174.269531 287.546875 175.9375 C 288.054688 177.601562 288.476562 179.289062 288.820312 181 C 289.160156 182.707031 289.417969 184.429688 289.589844 186.164062 C 289.761719 187.898438 289.851562 189.636719 289.851562 191.378906 C 289.855469 193.121094 289.769531 194.859375 289.601562 196.59375 C 289.433594 198.328125 289.179688 200.050781 288.839844 201.757812 C 288.503906 203.46875 288.082031 205.15625 287.578125 206.824219 C 287.074219 208.492188 286.492188 210.132812 285.824219 211.742188 C 285.160156 213.355469 284.417969 214.929688 283.601562 216.464844 C 282.78125 218.003906 281.886719 219.5 280.921875 220.949219 C 279.957031 222.398438 278.921875 223.796875 277.816406 225.144531 C 276.714844 226.496094 275.546875 227.785156 274.316406 229.019531 C 273.085938 230.253906 271.796875 231.425781 270.453125 232.53125 C 269.105469 233.640625 267.710938 234.675781 266.261719 235.648438 C 264.816406 236.617188 263.324219 237.515625 261.789062 238.339844 C 260.253906 239.160156 258.683594 239.910156 257.074219 240.578125 C 255.464844 241.246094 253.828125 241.835938 252.160156 242.34375 C 250.492188 242.851562 248.808594 243.277344 247.097656 243.621094 C 245.390625 243.960938 243.667969 244.222656 241.933594 244.394531 C 240.203125 244.566406 238.464844 244.65625 236.722656 244.660156 L 236.550781 244.660156 C 234.8125 244.652344 233.074219 244.5625 231.34375 244.390625 C 229.609375 244.214844 227.890625 243.957031 226.183594 243.613281 C 224.480469 243.269531 222.792969 242.84375 221.128906 242.335938 C 219.464844 241.824219 217.828125 241.238281 216.222656 240.566406 C 214.613281 239.898438 213.042969 239.152344 211.511719 238.328125 C 209.976562 237.507812 208.488281 236.609375 207.039062 235.640625 C 205.59375 234.671875 204.199219 233.636719 202.855469 232.53125 C 201.511719 231.425781 200.222656 230.253906 198.992188 229.023438 C 197.765625 227.792969 196.597656 226.503906 195.492188 225.15625 C 194.390625 223.808594 193.355469 222.414062 192.386719 220.964844 C 191.421875 219.515625 190.527344 218.023438 189.707031 216.488281 C 188.886719 214.953125 188.144531 213.382812 187.476562 211.773438 C 186.8125 210.167969 186.226562 208.527344 185.71875 206.863281 C 185.214844 205.199219 184.789062 203.511719 184.449219 201.804688 C 184.109375 200.097656 183.851562 198.378906 183.679688 196.644531 C 183.507812 194.914062 183.421875 193.175781 183.421875 191.433594 Z M 183.421875 191.433594 " fill-opacity="1" fill-rule="nonzero"/></g><path fill="#faa87f" d="M 255.792969 319.167969 C 255.792969 321.050781 255.886719 322.929688 256.070312 324.800781 C 256.253906 326.675781 256.53125 328.535156 256.898438 330.382812 C 257.265625 332.226562 257.722656 334.050781 258.269531 335.855469 C 258.816406 337.65625 259.449219 339.425781 260.167969 341.164062 C 260.890625 342.90625 261.691406 344.605469 262.582031 346.265625 C 263.46875 347.925781 264.433594 349.539062 265.480469 351.101562 C 266.527344 352.667969 267.644531 354.179688 268.839844 355.632812 C 270.035156 357.089844 271.296875 358.480469 272.628906 359.8125 C 273.957031 361.144531 275.351562 362.40625 276.808594 363.601562 C 278.261719 364.796875 279.773438 365.917969 281.335938 366.960938 C 282.902344 368.007812 284.515625 368.976562 286.175781 369.863281 C 287.835938 370.75 289.535156 371.554688 291.273438 372.273438 C 293.011719 372.996094 294.78125 373.628906 296.582031 374.175781 C 298.386719 374.722656 300.207031 375.179688 302.054688 375.546875 C 303.902344 375.914062 305.761719 376.1875 307.632812 376.371094 C 309.507812 376.558594 311.386719 376.648438 313.265625 376.648438 C 315.148438 376.648438 317.027344 376.558594 318.902344 376.371094 C 320.773438 376.1875 322.632812 375.914062 324.480469 375.546875 C 326.328125 375.179688 328.148438 374.722656 329.953125 374.175781 C 331.753906 373.628906 333.523438 372.996094 335.261719 372.273438 C 337 371.554688 338.699219 370.75 340.359375 369.863281 C 342.019531 368.976562 343.632812 368.007812 345.199219 366.960938 C 346.761719 365.917969 348.273438 364.796875 349.726562 363.601562 C 351.183594 362.40625 352.578125 361.144531 353.90625 359.8125 C 355.238281 358.480469 356.5 357.089844 357.695312 355.632812 C 358.890625 354.179688 360.007812 352.667969 361.054688 351.101562 C 362.101562 349.539062 363.066406 347.925781 363.953125 346.265625 C 364.84375 344.605469 365.644531 342.90625 366.367188 341.164062 C 367.085938 339.425781 367.71875 337.65625 368.265625 335.855469 C 368.8125 334.050781 369.269531 332.226562 369.636719 330.382812 C 370.003906 328.535156 370.28125 326.675781 370.464844 324.800781 C 370.648438 322.929688 370.742188 321.050781 370.742188 319.167969 C 370.742188 317.285156 370.648438 315.40625 370.464844 313.535156 C 370.28125 311.660156 370.003906 309.800781 369.636719 307.953125 C 369.269531 306.105469 368.8125 304.285156 368.265625 302.480469 C 367.71875 300.679688 367.085938 298.910156 366.367188 297.171875 C 365.644531 295.429688 364.84375 293.730469 363.953125 292.070312 C 363.066406 290.410156 362.101562 288.796875 361.054688 287.234375 C 360.007812 285.667969 358.890625 284.15625 357.695312 282.703125 C 356.5 281.246094 355.238281 279.851562 353.90625 278.523438 C 352.578125 277.191406 351.183594 275.929688 349.726562 274.734375 C 348.273438 273.539062 346.761719 272.417969 345.199219 271.375 C 343.632812 270.328125 342.019531 269.359375 340.359375 268.472656 C 338.699219 267.585938 337 266.78125 335.261719 266.0625 C 333.523438 265.339844 331.753906 264.707031 329.953125 264.160156 C 328.148438 263.613281 326.328125 263.15625 324.480469 262.789062 C 322.632812 262.421875 320.773438 262.148438 318.902344 261.964844 C 317.027344 261.777344 315.148438 261.6875 313.265625 261.6875 C 311.386719 261.6875 309.507812 261.78125 307.636719 261.96875 C 305.761719 262.15625 303.90625 262.433594 302.058594 262.800781 C 300.214844 263.167969 298.390625 263.628906 296.589844 264.175781 C 294.789062 264.722656 293.019531 265.355469 291.28125 266.078125 C 289.546875 266.800781 287.847656 267.605469 286.1875 268.492188 C 284.527344 269.378906 282.917969 270.347656 281.351562 271.390625 C 279.789062 272.4375 278.277344 273.558594 276.824219 274.753906 C 275.367188 275.945312 273.976562 277.210938 272.644531 278.539062 C 271.316406 279.871094 270.054688 281.265625 268.859375 282.71875 C 267.664062 284.171875 266.546875 285.683594 265.5 287.246094 C 264.453125 288.8125 263.488281 290.425781 262.597656 292.082031 C 261.710938 293.742188 260.90625 295.441406 260.1875 297.179688 C 259.464844 298.917969 258.832031 300.6875 258.28125 302.488281 C 257.734375 304.289062 257.277344 306.113281 256.910156 307.957031 C 256.539062 309.804688 256.261719 311.664062 256.078125 313.535156 C 255.890625 315.410156 255.796875 317.285156 255.792969 319.167969 Z M 313.265625 274.460938 C 314.730469 274.460938 316.191406 274.53125 317.648438 274.675781 C 319.105469 274.820312 320.550781 275.03125 321.988281 275.320312 C 323.425781 275.605469 324.84375 275.960938 326.242188 276.386719 C 327.644531 276.808594 329.019531 277.300781 330.375 277.863281 C 331.726562 278.421875 333.046875 279.046875 334.339844 279.738281 C 335.632812 280.429688 336.886719 281.179688 338.101562 281.996094 C 339.320312 282.808594 340.496094 283.679688 341.625 284.609375 C 342.757812 285.535156 343.839844 286.519531 344.875 287.554688 C 345.910156 288.589844 346.894531 289.671875 347.824219 290.804688 C 348.75 291.9375 349.621094 293.113281 350.433594 294.328125 C 351.25 295.546875 352 296.800781 352.691406 298.09375 C 353.382812 299.382812 354.007812 300.707031 354.566406 302.058594 C 355.125 303.410156 355.621094 304.789062 356.042969 306.191406 C 356.46875 307.589844 356.824219 309.007812 357.109375 310.445312 C 357.394531 311.882812 357.609375 313.328125 357.753906 314.785156 C 357.898438 316.242188 357.96875 317.703125 357.96875 319.167969 C 357.96875 320.632812 357.898438 322.09375 357.753906 323.550781 C 357.609375 325.007812 357.394531 326.453125 357.109375 327.890625 C 356.824219 329.324219 356.46875 330.746094 356.042969 332.144531 C 355.621094 333.546875 355.125 334.925781 354.566406 336.277344 C 354.007812 337.628906 353.382812 338.953125 352.691406 340.242188 C 352 341.535156 351.25 342.789062 350.433594 344.007812 C 349.621094 345.222656 348.75 346.398438 347.824219 347.53125 C 346.894531 348.664062 345.910156 349.746094 344.875 350.78125 C 343.839844 351.816406 342.757812 352.796875 341.625 353.726562 C 340.496094 354.65625 339.320312 355.527344 338.101562 356.339844 C 336.886719 357.15625 335.632812 357.90625 334.339844 358.597656 C 333.046875 359.285156 331.726562 359.914062 330.375 360.472656 C 329.019531 361.03125 327.644531 361.527344 326.242188 361.949219 C 324.84375 362.375 323.425781 362.730469 321.988281 363.015625 C 320.550781 363.300781 319.105469 363.515625 317.648438 363.660156 C 316.191406 363.804688 314.730469 363.875 313.265625 363.875 C 311.804688 363.875 310.34375 363.804688 308.886719 363.660156 C 307.429688 363.515625 305.984375 363.300781 304.546875 363.015625 C 303.109375 362.730469 301.691406 362.375 300.292969 361.949219 C 298.890625 361.527344 297.511719 361.03125 296.160156 360.472656 C 294.808594 359.914062 293.488281 359.285156 292.195312 358.597656 C 290.902344 357.90625 289.648438 357.15625 288.433594 356.339844 C 287.214844 355.527344 286.039062 354.65625 284.910156 353.726562 C 283.777344 352.796875 282.695312 351.816406 281.660156 350.78125 C 280.625 349.746094 279.640625 348.664062 278.710938 347.53125 C 277.785156 346.398438 276.914062 345.222656 276.097656 344.007812 C 275.285156 342.789062 274.535156 341.535156 273.84375 340.242188 C 273.152344 338.953125 272.527344 337.628906 271.96875 336.277344 C 271.410156 334.925781 270.914062 333.546875 270.492188 332.144531 C 270.066406 330.746094 269.710938 329.324219 269.425781 327.890625 C 269.140625 326.453125 268.925781 325.007812 268.78125 323.550781 C 268.636719 322.09375 268.566406 320.632812 268.566406 319.167969 C 268.566406 317.703125 268.640625 316.242188 268.785156 314.789062 C 268.929688 313.332031 269.144531 311.882812 269.433594 310.449219 C 269.71875 309.011719 270.074219 307.597656 270.5 306.195312 C 270.929688 304.792969 271.421875 303.417969 271.980469 302.066406 C 272.542969 300.714844 273.167969 299.394531 273.859375 298.101562 C 274.550781 296.8125 275.300781 295.558594 276.113281 294.339844 C 276.929688 293.125 277.800781 291.949219 278.726562 290.820312 C 279.65625 289.6875 280.636719 288.605469 281.671875 287.570312 C 282.707031 286.535156 283.792969 285.550781 284.921875 284.625 C 286.054688 283.695312 287.226562 282.824219 288.445312 282.007812 C 289.660156 281.195312 290.914062 280.445312 292.207031 279.753906 C 293.496094 279.0625 294.816406 278.4375 296.167969 277.875 C 297.519531 277.316406 298.898438 276.820312 300.296875 276.394531 C 301.695312 275.96875 303.113281 275.613281 304.550781 275.328125 C 305.984375 275.039062 307.429688 274.824219 308.886719 274.679688 C 310.34375 274.535156 311.804688 274.460938 313.265625 274.460938 Z M 313.265625 274.460938 " fill-opacity="1" fill-rule="nonzero"/><path fill="#faa87f" d="M 287.722656 325.554688 L 306.882812 325.554688 L 306.882812 344.714844 C 306.882812 345.132812 306.921875 345.550781 307.003906 345.960938 C 307.085938 346.371094 307.207031 346.773438 307.367188 347.160156 C 307.527344 347.546875 307.726562 347.914062 307.957031 348.261719 C 308.191406 348.613281 308.457031 348.933594 308.753906 349.230469 C 309.046875 349.527344 309.371094 349.792969 309.71875 350.027344 C 310.066406 350.257812 310.4375 350.457031 310.824219 350.617188 C 311.210938 350.777344 311.609375 350.898438 312.023438 350.980469 C 312.433594 351.0625 312.847656 351.101562 313.269531 351.101562 C 313.6875 351.101562 314.101562 351.0625 314.511719 350.980469 C 314.925781 350.898438 315.324219 350.777344 315.710938 350.617188 C 316.097656 350.457031 316.464844 350.257812 316.816406 350.027344 C 317.164062 349.792969 317.488281 349.527344 317.78125 349.230469 C 318.078125 348.933594 318.34375 348.613281 318.578125 348.261719 C 318.808594 347.914062 319.007812 347.546875 319.167969 347.160156 C 319.328125 346.773438 319.449219 346.371094 319.53125 345.960938 C 319.613281 345.550781 319.652344 345.132812 319.652344 344.714844 L 319.652344 325.554688 L 338.8125 325.554688 C 339.230469 325.554688 339.644531 325.515625 340.058594 325.433594 C 340.46875 325.351562 340.867188 325.230469 341.253906 325.070312 C 341.640625 324.90625 342.011719 324.710938 342.359375 324.476562 C 342.707031 324.246094 343.03125 323.980469 343.328125 323.683594 C 343.625 323.386719 343.886719 323.066406 344.121094 322.714844 C 344.355469 322.367188 344.550781 322 344.710938 321.613281 C 344.871094 321.222656 344.992188 320.824219 345.074219 320.414062 C 345.15625 320.003906 345.195312 319.585938 345.195312 319.167969 C 345.195312 318.75 345.15625 318.332031 345.074219 317.921875 C 344.992188 317.511719 344.871094 317.109375 344.710938 316.722656 C 344.550781 316.335938 344.355469 315.96875 344.121094 315.621094 C 343.886719 315.269531 343.625 314.949219 343.328125 314.652344 C 343.03125 314.355469 342.707031 314.089844 342.359375 313.855469 C 342.011719 313.625 341.640625 313.425781 341.253906 313.265625 C 340.867188 313.105469 340.46875 312.984375 340.058594 312.902344 C 339.644531 312.820312 339.230469 312.78125 338.8125 312.78125 L 319.652344 312.78125 L 319.652344 293.621094 C 319.652344 293.199219 319.613281 292.785156 319.53125 292.375 C 319.449219 291.964844 319.328125 291.5625 319.167969 291.175781 C 319.007812 290.789062 318.808594 290.421875 318.578125 290.070312 C 318.34375 289.722656 318.078125 289.402344 317.78125 289.105469 C 317.488281 288.808594 317.164062 288.542969 316.816406 288.308594 C 316.464844 288.078125 316.097656 287.878906 315.710938 287.71875 C 315.324219 287.558594 314.925781 287.4375 314.511719 287.355469 C 314.101562 287.273438 313.6875 287.234375 313.269531 287.234375 C 312.847656 287.234375 312.433594 287.273438 312.023438 287.355469 C 311.609375 287.4375 311.210938 287.558594 310.824219 287.71875 C 310.4375 287.878906 310.066406 288.078125 309.71875 288.308594 C 309.371094 288.542969 309.046875 288.808594 308.753906 289.105469 C 308.457031 289.402344 308.191406 289.722656 307.957031 290.070312 C 307.726562 290.421875 307.527344 290.789062 307.367188 291.175781 C 307.207031 291.5625 307.085938 291.964844 307.003906 292.375 C 306.921875 292.785156 306.882812 293.199219 306.882812 293.621094 L 306.882812 312.78125 L 287.722656 312.78125 C 287.304688 312.78125 286.890625 312.820312 286.476562 312.902344 C 286.066406 312.984375 285.667969 313.105469 285.28125 313.265625 C 284.894531 313.425781 284.523438 313.625 284.175781 313.855469 C 283.828125 314.089844 283.503906 314.355469 283.207031 314.652344 C 282.910156 314.949219 282.648438 315.269531 282.414062 315.621094 C 282.179688 315.96875 281.984375 316.335938 281.824219 316.722656 C 281.664062 317.109375 281.542969 317.511719 281.460938 317.921875 C 281.378906 318.332031 281.339844 318.75 281.339844 319.167969 C 281.339844 319.585938 281.378906 320.003906 281.460938 320.414062 C 281.542969 320.824219 281.664062 321.222656 281.824219 321.613281 C 281.984375 322 282.179688 322.367188 282.414062 322.714844 C 282.648438 323.066406 282.910156 323.386719 283.207031 323.683594 C 283.503906 323.980469 283.828125 324.246094 284.175781 324.476562 C 284.523438 324.710938 284.894531 324.90625 285.28125 325.070312 C 285.667969 325.230469 286.066406 325.351562 286.476562 325.433594 C 286.890625 325.515625 287.304688 325.554688 287.722656 325.554688 Z M 287.722656 325.554688 " fill-opacity="1" fill-rule="nonzero"/></svg>