<svg width="45" height="61" viewBox="0 0 45 61" fill="none" xmlns="http://www.w3.org/2000/svg">
<g filter="url(#filter0_d_110_46)">
<mask id="path-1-inside-1_110_46" fill="white">
<path d="M2.52478 44.9987C4.80249 49.3543 8.52041 52.8391 13.081 54.8929C17.6417 56.9467 22.7802 57.4503 27.6708 56.3228C32.5614 55.1953 36.92 52.5022 40.0462 48.6762C43.1725 44.8502 44.8847 40.1135 44.9079 35.2274C44.931 30.3413 43.2637 25.5895 40.1738 21.7357C37.084 17.8819 32.751 15.1498 27.8713 13.9786C22.9916 12.8074 17.8486 13.265 13.2687 15.2779C8.68877 17.2908 4.938 20.7421 2.61913 25.0772L6.54826 27.0634C8.40884 23.5851 11.4183 20.8159 15.0931 19.2008C18.7679 17.5857 22.8945 17.2185 26.8098 18.1583C30.7251 19.098 34.2017 21.2901 36.6809 24.3823C39.1601 27.4745 40.4979 31.2872 40.4793 35.2076C40.4608 39.128 39.0869 42.9286 36.5785 45.9984C34.0701 49.0683 30.5729 51.2292 26.6489 52.1338C22.7248 53.0385 18.6019 52.6344 14.9426 50.9865C11.2832 49.3386 8.30011 46.5425 6.47256 43.0477L2.52478 44.9987Z"/>
</mask>
<path d="M2.52478 44.9987C4.80249 49.3543 8.52041 52.8391 13.081 54.8929C17.6417 56.9467 22.7802 57.4503 27.6708 56.3228C32.5614 55.1953 36.92 52.5022 40.0462 48.6762C43.1725 44.8502 44.8847 40.1135 44.9079 35.2274C44.931 30.3413 43.2637 25.5895 40.1738 21.7357C37.084 17.8819 32.751 15.1498 27.8713 13.9786C22.9916 12.8074 17.8486 13.265 13.2687 15.2779C8.68877 17.2908 4.938 20.7421 2.61913 25.0772L6.54826 27.0634C8.40884 23.5851 11.4183 20.8159 15.0931 19.2008C18.7679 17.5857 22.8945 17.2185 26.8098 18.1583C30.7251 19.098 34.2017 21.2901 36.6809 24.3823C39.1601 27.4745 40.4979 31.2872 40.4793 35.2076C40.4608 39.128 39.0869 42.9286 36.5785 45.9984C34.0701 49.0683 30.5729 51.2292 26.6489 52.1338C22.7248 53.0385 18.6019 52.6344 14.9426 50.9865C11.2832 49.3386 8.30011 46.5425 6.47256 43.0477L2.52478 44.9987Z" stroke="url(#paint0_linear_110_46)" stroke-opacity="0.9" stroke-width="8" stroke-linejoin="bevel" mask="url(#path-1-inside-1_110_46)"/>
<path d="M23.8939 44.7361C23.3081 45.3218 22.3584 45.3218 21.7726 44.7361L12.2266 35.1901C11.6409 34.6043 11.6409 33.6546 12.2266 33.0688C12.8124 32.483 13.7622 32.483 14.348 33.0688L22.8332 41.5541L31.3185 33.0688C31.9043 32.483 32.8541 32.483 33.4399 33.0688C34.0256 33.6546 34.0256 34.6043 33.4399 35.1901L23.8939 44.7361ZM24.3333 4.69479e-08L24.3332 43.6754L21.3332 43.6754L21.3333 -4.69479e-08L24.3333 4.69479e-08Z" fill="white"/>
</g>
<defs>
<filter id="filter0_d_110_46" x="0" y="0" width="45" height="61" filterUnits="userSpaceOnUse" color-interpolation-filters="sRGB">
<feFlood flood-opacity="0" result="BackgroundImageFix"/>
<feColorMatrix in="SourceAlpha" type="matrix" values="0 0 0 0 0 0 0 0 0 0 0 0 0 0 0 0 0 0 127 0" result="hardAlpha"/>
<feOffset dy="4"/>
<feComposite in2="hardAlpha" operator="out"/>
<feColorMatrix type="matrix" values="0 0 0 0 0 0 0 0 0 0 0 0 0 0 0 0 0 0 0.3 0"/>
<feBlend mode="normal" in2="BackgroundImageFix" result="effect1_dropShadow_110_46"/>
<feBlend mode="normal" in="SourceGraphic" in2="effect1_dropShadow_110_46" result="shape"/>
</filter>
<linearGradient id="paint0_linear_110_46" x1="1.01256" y1="33.0192" x2="41.5298" y2="33.0981" gradientUnits="userSpaceOnUse">
<stop offset="0.0520833" stop-color="#F9ED55"/>
<stop offset="0.317708" stop-color="#DFAA40"/>
<stop offset="0.734375" stop-color="#ECB23D"/>
<stop offset="1" stop-color="#D29B48"/>
</linearGradient>
</defs>
</svg>
